<mxfile host="app.diagrams.net" modified="2023-06-06T03:37:36.351Z" agent="Mozilla/5.0 (Windows NT 10.0; Win64; x64) AppleWebKit/537.36 (KHTML, like Gecko) Chrome/114.0.0.0 Safari/537.36 Edg/114.0.1823.37" version="21.3.7" etag="R67XbiM3SnPHgtsW9zF9" type="github">
  <diagram name="第 1 页" id="9cxBHJg09e6E28dabhEe">
    <mxGraphModel>
      <root>
        <mxCell id="0" />
        <mxCell id="1" parent="0" />
      </root>
    </mxGraphModel>
  </diagram>
</mxfile>
